<?xml version="1.0" encoding="UTF-8" standalone="no"?>
<!-- Created with Inkscape (http://www.inkscape.org/) -->

<svg
   width="512"
   height="512"
   viewBox="0 0 512 512"
   version="1.1"
   id="svg5"
   sodipodi:docname="cmacs-icon2.svg"
   inkscape:version="1.1.2 (0a00cf5339, 2022-02-04)"
   xmlns:inkscape="http://www.inkscape.org/namespaces/inkscape"
   xmlns:sodipodi="http://sodipodi.sourceforge.net/DTD/sodipodi-0.dtd"
   xmlns:xlink="http://www.w3.org/1999/xlink"
   xmlns="http://www.w3.org/2000/svg"
   xmlns:svg="http://www.w3.org/2000/svg">
  <sodipodi:namedview
     id="namedview7"
     pagecolor="#505050"
     bordercolor="#eeeeee"
     borderopacity="1"
     inkscape:pageshadow="0"
     inkscape:pageopacity="0"
     inkscape:pagecheckerboard="0"
     inkscape:document-units="px"
     showgrid="true"
     inkscape:snap-bbox="false"
     inkscape:zoom="1.2029102"
     inkscape:cx="260.79791"
     inkscape:cy="305.65043"
     inkscape:window-width="1920"
     inkscape:window-height="1031"
     inkscape:window-x="1920"
     inkscape:window-y="49"
     inkscape:window-maximized="1"
     inkscape:current-layer="layer1">
    <inkscape:grid
       type="xygrid"
       id="grid9" />
  </sodipodi:namedview>
  <defs
     id="defs2">
    <linearGradient
       inkscape:collect="always"
       id="linearGradient32788">
      <stop
         style="stop-color:#988ce3;stop-opacity:1;"
         offset="0"
         id="stop32784" />
      <stop
         style="stop-color:#7565d9;stop-opacity:1"
         offset="1"
         id="stop32786" />
    </linearGradient>
    <radialGradient
       inkscape:collect="always"
       xlink:href="#linearGradient32788"
       id="radialGradient32790"
       cx="253.32442"
       cy="246.15897"
       fx="253.32442"
       fy="246.15897"
       r="204.55331"
       gradientTransform="matrix(1.0104495,-0.01422409,0.01625203,1.1545105,-6.6476961,-34.430853)"
       gradientUnits="userSpaceOnUse" />
  </defs>
  <g
     inkscape:groupmode="layer"
     id="layer2"
     inkscape:label="C"
     style="display:inline"
     sodipodi:insensitive="true">
    <path
       sodipodi:type="star"
       style="fill:url(#radialGradient32790);fill-opacity:1;stroke:#141414;stroke-width:5;stroke-linecap:square;stroke-linejoin:bevel;stroke-miterlimit:4;stroke-dasharray:none;stroke-opacity:1"
       id="path24838-2"
       inkscape:flatsided="true"
       sodipodi:sides="6"
       sodipodi:cx="253.32442"
       sodipodi:cy="246.15897"
       sodipodi:r1="233.31107"
       sodipodi:r2="202.05331"
       sodipodi:arg1="-1.5707963"
       sodipodi:arg2="-1.0471976"
       inkscape:rounded="0"
       inkscape:randomized="0"
       d="m 253.32442,12.8479 202.05331,116.65554 -10e-6,233.31106 -202.05331,116.65553 -202.053306,-116.65554 6e-6,-233.31106 z" />
    <path
       style="fill:#ffffff;fill-opacity:0.986077;stroke:#000000;stroke-width:6.47607;stroke-linecap:butt;stroke-linejoin:round;stroke-miterlimit:4;stroke-dasharray:none;stroke-opacity:1"
       d="M 346.64885,192.31796 393.31106,167.19216 253.32442,84.635935 113.33778,167.19216 V 328.71521 L 253.32442,407.68203 393.31106,325.12581 346.64885,300 253.32442,353.84102 160,300 V 192.31796 l 93.32442,-53.84101 z"
       id="path31746-7" />
  </g>
  <g
     inkscape:label="MACS"
     inkscape:groupmode="layer"
     id="layer1">
    <path
       style="fill:#988ce3;fill-opacity:1;stroke:#000000;stroke-width:1.42722px;stroke-linecap:butt;stroke-linejoin:miter;stroke-opacity:1"
       d="m 94.461409,401.4556 14.272201,14.2722 v 71.361 l 14.2722,14.2722 v -85.6332 l -14.2722,-14.2722 z"
       id="path3725" />
    <path
       style="fill:#988ce3;fill-opacity:1;stroke:#000000;stroke-width:1.42722px;stroke-linecap:butt;stroke-linejoin:miter;stroke-opacity:1"
       d="m 87.325309,401.4556 h -14.2722 l 14.2722,14.2722 h 14.272201 z"
       id="path3920" />
    <path
       style="fill:#988ce3;fill-opacity:1;stroke:#000000;stroke-width:1.42722px;stroke-linecap:butt;stroke-linejoin:miter;stroke-opacity:1"
       d="m 65.917009,401.4556 14.2722,14.2722 v 85.6332 l -14.2722,-14.2722 v -71.361 L 51.64481,401.4556 Z"
       id="path4115" />
    <path
       style="fill:#988ce3;fill-opacity:1;stroke:#000000;stroke-width:1.42722px;stroke-linecap:butt;stroke-linejoin:miter;stroke-opacity:1"
       d="m 44.50871,401.4556 14.272199,14.2722 H 44.50871 l -14.2722,-14.2722 z"
       id="path4310" />
    <path
       style="fill:#988ce3;fill-opacity:1;stroke:#000000;stroke-width:1.42722px;stroke-linecap:butt;stroke-linejoin:miter;stroke-opacity:1"
       d="m 23.10041,401.4556 v 85.6332 l 14.2722,14.2722 v -85.6332 z"
       id="path4425" />
    <path
       style="fill:#988ce3;fill-opacity:1;stroke:#000000;stroke-width:1.42722px;stroke-linecap:butt;stroke-linejoin:miter;stroke-opacity:1"
       d="m 165.82241,451.4083 14.2722,14.2722 h 42.8166 v -14.2722 z"
       id="path6464-5"
       sodipodi:nodetypes="ccccc" />
    <path
       style="fill:#988ce3;fill-opacity:1;stroke:#000000;stroke-width:1.42722px;stroke-linecap:butt;stroke-linejoin:miter;stroke-opacity:1"
       d="M 365.6332,501.361 H 315.6805 L 301.4083,487.0888 H 351.361 Z"
       id="path6923" />
    <path
       style="fill:#988ce3;fill-opacity:1;stroke:#000000;stroke-width:1.42722px;stroke-linecap:butt;stroke-linejoin:miter;stroke-opacity:1"
       d="m 308.5444,501.361 h -21.4083 l -21.4083,-21.4083 v -57.0888 l 21.4083,-21.4083 h 21.4083 L 280,430 v 42.8166 z"
       id="path6925" />
    <path
       style="fill:#988ce3;fill-opacity:1;stroke:#000000;stroke-width:1.42722px;stroke-linecap:butt;stroke-linejoin:miter;stroke-opacity:1"
       d="m 315.6805,401.4556 -14.2722,14.2722 h 49.9527 l 14.2722,-14.2722 z"
       id="path6927" />
    <path
       style="fill:#988ce3;fill-opacity:1;stroke:#000000;stroke-width:1.42722px;stroke-linecap:butt;stroke-linejoin:miter;stroke-opacity:1"
       d="m 158.68631,501.361 -14.2722,-14.2722 v -64.2249 l 21.4083,-21.4083 h 28.5444 l 14.2722,14.2722 h -35.6805 L 158.68631,430 Z"
       id="path9238" />
    <path
       style="fill:#988ce3;fill-opacity:1;stroke:#000000;stroke-width:1.42722px;stroke-linecap:butt;stroke-linejoin:miter;stroke-opacity:1"
       d="M 201.50291,401.4556 230.04731,430 v 57.0888 l 14.2722,14.2722 v -78.4971 l -21.4083,-21.4083 z"
       id="path9433" />
    <path
       style="fill:#988ce3;fill-opacity:1;stroke:#000000;stroke-width:1.42722px;stroke-linecap:butt;stroke-linejoin:miter;stroke-opacity:1"
       d="m 486.9469,415.7278 h -71.361 L 401.3137,430 l 28.5444,28.5444 h -21.4083 l -21.4083,-21.4083 v -14.2722 l 21.4083,-21.4083 h 64.2249 z"
       id="path10100" />
    <path
       style="fill:#988ce3;fill-opacity:1;stroke:#000000;stroke-width:1.42722px;stroke-linecap:butt;stroke-linejoin:miter;stroke-opacity:1"
       d="m 422.722,444.2722 14.2722,14.2722 h 21.4083 l 14.2722,14.2722 -14.2722,14.2722 h -71.361 l 14.2722,14.2722 h 64.2249 l 21.4083,-21.4083 v -14.2722 l -21.4083,-21.4083 z"
       id="path10102" />
    <path
       sodipodi:type="star"
       style="fill:#988ce3;fill-opacity:1;fill-rule:evenodd;stroke:#141414;stroke-width:5;stroke-linecap:square;stroke-linejoin:bevel;stroke-miterlimit:4;stroke-dasharray:none;stroke-opacity:1"
       id="path11262"
       inkscape:flatsided="true"
       sodipodi:sides="6"
       sodipodi:cx="722.47229"
       sodipodi:cy="179.21983"
       sodipodi:r1="179.99998"
       sodipodi:r2="155.88457"
       sodipodi:arg1="-1.5707963"
       sodipodi:arg2="-1.0471976"
       inkscape:rounded="0"
       inkscape:randomized="0"
       d="m 722.47229,-0.78015137 155.88456,89.99999637 0,179.999985 -155.88456,89.99999 -155.88456,-90 0,-179.999983 z" />
    <path
       style="fill:#ffffff;fill-opacity:1;stroke:#000000;stroke-width:3.84398px;stroke-linecap:butt;stroke-linejoin:miter;stroke-opacity:1"
       d="M 683.90088,63.900881 626.24141,121.56036 V 236.8793 l 57.65947,57.65948 h 76.87931 L 818.43967,236.8793 780,198.43966 741.56036,236.8793 h -38.43964 l -19.21984,-19.21983 v -76.87928 l 19.21984,-19.21983 h 38.43964 L 780,160 818.43967,121.56036 760.78019,63.900881 Z"
       id="path17344"
       sodipodi:nodetypes="ccccccccccccccccc" />
    <path
       sodipodi:type="star"
       style="fill:#988ce3;fill-opacity:1;stroke:#141414;stroke-width:5;stroke-linecap:square;stroke-linejoin:bevel;stroke-miterlimit:4;stroke-dasharray:none;stroke-opacity:1"
       id="path24838"
       inkscape:flatsided="true"
       sodipodi:sides="6"
       sodipodi:cx="-375"
       sodipodi:cy="225"
       sodipodi:r1="65"
       sodipodi:r2="56.291653"
       sodipodi:arg1="-1.5707963"
       sodipodi:arg2="-1.0471976"
       inkscape:rounded="0"
       inkscape:randomized="0"
       d="m -375,160 56.29165,32.5 0,65 L -375,290 l -56.29165,-32.5 0,-65 z" />
    <path
       style="fill:#ffffff;fill-opacity:0.986077;stroke:#000000;stroke-width:1px;stroke-linecap:butt;stroke-linejoin:miter;stroke-opacity:1"
       d="m -349,210 13,-7 -39,-23 -39,23 v 45 l 39,22 39,-23 -13,-7 -26,15 -26,-15 v -30 l 26,-15 z"
       id="path31746" />
  </g>
</svg>
