<svg width="246" height="246" viewBox="0 0 246 246" fill="none" xmlns="http://www.w3.org/2000/svg">
<g clip-path="url(#clip0_2_2)">
<path d="M133.581 21.5552C133.58 21.555 133.579 21.5549 133.579 21.5549C133.579 21.5548 133.578 21.5548 133.577 21.5548L118.878 -3.90541C118.879 -3.9054 118.879 -3.90543 118.88 -3.90549C118.88 -3.90554 118.88 -3.90567 118.881 -3.90588" fill="#333333"/>
<path fill-rule="evenodd" clip-rule="evenodd" d="M26.2387 66.2821C26.2415 65.927 26.4325 65.6 26.7405 65.423L122.978 10.1425C123.285 9.96606 123.663 9.96524 123.97 10.1403L219.922 64.6992C220.236 64.8773 220.429 65.2101 220.428 65.5703L220.225 178.813C220.224 179.169 220.035 179.498 219.727 179.676L123.244 235.611C122.934 235.791 122.551 235.791 122.24 235.611L25.8336 179.64C25.5229 179.459 25.3329 179.126 25.3357 178.767L26.2387 66.2821ZM124.993 46.7881C125.306 46.6101 125.691 46.6144 126 46.7994L185.453 82.3736C185.995 82.6977 186.104 83.4361 185.68 83.9036L167.545 103.9C167.227 104.25 166.708 104.33 166.3 104.092L125.522 80.3043C125.201 80.1172 124.803 80.1233 124.488 80.3201L89.424 102.235C89.1602 102.4 89 102.689 89 103V103L88.5081 140.384C88.5031 140.762 88.7113 141.11 89.0463 141.284L124.547 159.764C124.832 159.912 125.17 159.915 125.456 159.772L166.283 139.359C166.702 139.149 167.21 139.259 167.506 139.623L185.732 162.054C186.129 162.544 185.98 163.275 185.423 163.569L125.461 195.256C125.172 195.409 124.827 195.411 124.536 195.261L59.546 161.781C59.2111 161.609 59.0015 161.263 59.004 160.886L59.4963 84.5776C59.4986 84.2202 59.6915 83.8912 60.0022 83.7146L124.993 46.7881Z" fill="#988CE3" stroke="#333333" stroke-width="2.4" stroke-linecap="square" stroke-linejoin="bevel"/>
<path fill-rule="evenodd" clip-rule="evenodd" d="M107.731 187.884C107.355 187.13 106.271 187.151 105.925 187.92L82.6878 239.474C82.3769 240.164 82.9149 240.936 83.6696 240.883L89.7439 240.455C90.1267 240.428 90.4602 240.185 90.6025 239.828L95.7591 226.912C95.9114 226.531 96.2813 226.281 96.692 226.283L118.004 226.371C118.376 226.373 118.716 226.58 118.888 226.91L125.439 239.521C125.602 239.835 125.919 240.04 126.272 240.059L132.283 240.384C133.049 240.425 133.574 239.625 133.232 238.938L107.731 187.884ZM108.254 206.196C107.897 205.45 106.84 205.435 106.462 206.171L102.036 214.803C101.695 215.469 102.178 216.259 102.926 216.259H111.483C112.219 216.259 112.703 215.491 112.385 214.828L108.254 206.196Z" fill="#988CE3" stroke="#333333" stroke-width="2.85086" stroke-linecap="square" stroke-linejoin="bevel"/>
<path fill-rule="evenodd" clip-rule="evenodd" d="M9.58635 235.619L25.56 185.726C25.8027 184.968 26.7903 184.783 27.2903 185.402L43.9729 206.053C44.3743 206.55 45.1322 206.548 45.5314 206.05L61.9222 185.58C62.4457 184.926 63.4928 185.167 63.678 185.984L75.5775 238.45C75.7203 239.079 75.2382 239.677 74.5928 239.671L65.667 239.586C65.1829 239.581 64.7716 239.23 64.6906 238.753L58.8828 204.52C58.7437 203.7 57.7229 203.398 57.1604 204.01L45.4064 216.808C45.011 217.238 44.3323 217.239 43.9356 216.81L31.7938 203.674C31.2759 203.114 30.3467 203.317 30.1092 204.042L18.6904 238.891C18.556 239.301 18.1736 239.578 17.7419 239.579L9.47569 239.595C8.76754 239.596 8.28242 238.881 8.54525 238.223L9.58635 235.619Z" fill="#988CE3" stroke="#333333" stroke-width="2.32117" stroke-linecap="square" stroke-linejoin="bevel"/>
<path d="M165.556 187.829C165.246 187.646 164.861 187.643 164.549 187.823L142.433 200.526C142.125 200.703 141.934 201.03 141.932 201.385L141.724 227.25C141.721 227.61 141.911 227.943 142.222 228.123L164.377 240.986C164.688 241.167 165.072 241.166 165.383 240.985L185.707 229.127C186.237 228.818 186.359 228.1 185.972 227.623C180.537 220.93 186.363 227.893 180.254 220.634C179.956 220.28 179.426 220.179 179.013 220.386C165.232 227.289 179.364 220.262 165.401 227.299C165.108 227.447 164.731 227.446 164.443 227.289C153.782 221.486 154.883 222.236 152.667 221.03C152.342 220.853 152.143 220.49 152.149 220.12C152.349 207.886 152.143 220.156 152.286 207.812C152.29 207.473 152.484 207.128 152.772 206.947C164.388 199.648 152.794 206.837 164.384 199.675C164.699 199.48 165.133 199.476 165.453 199.663C179.19 207.701 165.424 199.836 179.012 207.651C179.423 207.887 179.969 207.811 180.283 207.456C185.93 201.091 180.515 207.15 185.839 201.24C186.262 200.77 186.158 200.022 185.614 199.7L165.556 187.829Z" fill="#988CE3" stroke="#333333" stroke-width="2.32117" stroke-linecap="square" stroke-linejoin="bevel"/>
<path fill-rule="evenodd" clip-rule="evenodd" d="M228.968 186.002C228.975 185.256 228.191 184.765 227.522 185.099L198.465 199.585C198.114 199.759 197.898 200.123 197.912 200.515L198.233 209.586C198.246 209.949 198.455 210.278 198.78 210.442L216.99 219.669C217.724 220.041 217.72 221.091 216.982 221.457L198.708 230.513C198.373 230.679 198.158 231.018 198.152 231.391L198.009 239.448C197.996 240.196 198.823 240.672 199.495 240.341C227.805 226.404 198.931 240.697 228.238 226.049C228.567 225.885 228.808 225.525 228.819 225.157C229.086 216.026 228.699 225.465 229.05 216.029C229.064 215.637 228.85 215.26 228.5 215.084L210.147 205.868C209.413 205.499 209.411 204.453 210.144 204.082L228.349 194.858C228.682 194.689 228.894 194.348 228.897 193.975L228.968 186.002Z" fill="#988CE3" stroke="#333333" stroke-width="2.32117" stroke-linecap="square" stroke-linejoin="bevel"/>
</g>
<defs>
<clipPath id="clip0_2_2">
<rect width="245.76" height="245.76" fill="white"/>
</clipPath>
</defs>
</svg>
