<svg width="492" height="246" viewBox="0 0 492 246" fill="none" xmlns="http://www.w3.org/2000/svg">
<g clip-path="url(#clip0_2_11)">
<path d="M133.581 21.5552C133.58 21.555 133.579 21.5549 133.579 21.5549C133.579 21.5548 133.578 21.5548 133.577 21.5548L118.878 -3.90541C118.879 -3.9054 118.879 -3.90543 118.88 -3.90549C118.88 -3.90554 118.88 -3.90567 118.881 -3.90588" fill="#333333"/>
<path fill-rule="evenodd" clip-rule="evenodd" d="M26.2387 66.2821C26.2415 65.927 26.4325 65.6 26.7405 65.423L122.978 10.1425C123.285 9.96606 123.663 9.96524 123.97 10.1403L219.922 64.6992C220.236 64.8773 220.429 65.2101 220.428 65.5703L220.225 178.813C220.224 179.169 220.035 179.498 219.727 179.676L123.244 235.611C122.934 235.791 122.551 235.791 122.24 235.611L25.8336 179.64C25.5229 179.459 25.3329 179.126 25.3357 178.767L26.2387 66.2821ZM124.993 46.7881C125.306 46.6101 125.691 46.6144 126 46.7994L185.453 82.3736C185.995 82.6977 186.104 83.4361 185.68 83.9036L167.545 103.9C167.227 104.25 166.708 104.33 166.3 104.092L125.522 80.3043C125.201 80.1172 124.803 80.1233 124.488 80.3201L89.424 102.235C89.1602 102.4 89 102.689 89 103V103L88.5081 140.384C88.5031 140.762 88.7113 141.11 89.0463 141.284L124.547 159.764C124.832 159.912 125.17 159.915 125.456 159.772L166.283 139.359C166.702 139.149 167.21 139.259 167.506 139.623L185.732 162.054C186.129 162.544 185.98 163.275 185.423 163.569L125.461 195.256C125.172 195.409 124.827 195.411 124.536 195.261L59.546 161.781C59.2111 161.609 59.0015 161.263 59.004 160.886L59.4963 84.5776C59.4986 84.2202 59.6915 83.8912 60.0022 83.7146L124.993 46.7881Z" fill="#988CE3" stroke="#333333" stroke-width="2.4" stroke-linecap="square" stroke-linejoin="bevel"/>
<path fill-rule="evenodd" clip-rule="evenodd" d="M333.21 160.943C332.832 160.193 331.754 160.215 331.406 160.979L302.455 224.659C302.141 225.349 302.679 226.124 303.435 226.071L311.437 225.513C311.819 225.486 312.152 225.244 312.295 224.889L318.751 208.856C318.904 208.477 319.273 208.228 319.683 208.23L346.214 208.339C346.585 208.34 346.924 208.547 347.096 208.875L355.282 224.498C355.446 224.81 355.762 225.013 356.114 225.032L364.036 225.457C364.803 225.498 365.328 224.694 364.982 224.008L333.21 160.943ZM333.87 183.302C333.511 182.559 332.46 182.545 332.081 183.277L326.255 194.541C325.911 195.206 326.394 196 327.143 196H338.407C339.144 196 339.628 195.229 339.307 194.565L333.87 183.302Z" fill="#988CE3" stroke="#333333" stroke-width="2.85086" stroke-linecap="square" stroke-linejoin="bevel"/>
<path fill-rule="evenodd" clip-rule="evenodd" d="M213.198 220.407L232.946 158.726C233.188 157.968 234.176 157.783 234.676 158.402L255.61 184.316C256.011 184.812 256.769 184.811 257.168 184.312L277.772 158.58C278.296 157.926 279.343 158.167 279.528 158.984L294.312 224.165C294.455 224.795 293.972 225.393 293.327 225.387L281.885 225.278C281.401 225.273 280.99 224.922 280.909 224.445L273.666 181.752C273.526 180.932 272.506 180.63 271.943 181.243L257.024 197.486C256.629 197.916 255.95 197.917 255.553 197.488L240.209 180.888C239.691 180.328 238.762 180.53 238.525 181.255L224.328 224.582C224.193 224.993 223.811 225.27 223.379 225.271L212.724 225.291C212.016 225.292 211.531 224.577 211.794 223.92L213.198 220.407Z" fill="#988CE3" stroke="#333333" stroke-width="2.85086" stroke-linecap="square" stroke-linejoin="bevel"/>
<path d="M404.645 161.645C404.335 161.461 403.95 161.459 403.638 161.638L376.247 177.372C375.939 177.549 375.748 177.876 375.745 178.231L375.488 210.262C375.485 210.621 375.675 210.954 375.986 211.134L403.426 227.066C403.738 227.247 404.122 227.246 404.432 227.065L429.739 212.3C430.27 211.991 430.398 211.281 430.011 210.805C423 202.175 430.452 211.083 422.699 201.869C422.401 201.515 421.862 201.411 421.448 201.618C404.215 210.249 421.847 201.482 404.46 210.244C404.167 210.392 403.787 210.391 403.498 210.234C390.105 202.943 391.7 204.002 388.811 202.425C388.486 202.248 388.285 201.88 388.291 201.51C388.541 186.212 388.284 201.546 388.463 186.13C388.467 185.79 388.663 185.441 388.951 185.26C403.435 176.159 388.971 185.128 403.438 176.188C403.753 175.994 404.192 175.989 404.512 176.176C421.639 186.196 404.449 176.374 421.448 186.15C421.859 186.386 422.414 186.306 422.729 185.951C429.926 177.839 422.965 185.629 429.864 177.969C430.287 177.5 430.178 176.756 429.635 176.434L404.645 161.645Z" fill="#988CE3" stroke="#333333" stroke-width="2.85086" stroke-linecap="square" stroke-linejoin="bevel"/>
<path fill-rule="evenodd" clip-rule="evenodd" d="M482.646 159.096C482.652 158.349 481.868 157.859 481.2 158.192L445.047 176.216C444.696 176.39 444.48 176.754 444.494 177.146L444.898 188.568C444.911 188.932 445.121 189.26 445.445 189.425L468.337 201.023C469.071 201.395 469.067 202.445 468.329 202.811L445.352 214.198C445.017 214.364 444.803 214.703 444.796 215.076L444.612 225.484C444.599 226.233 445.435 226.704 446.107 226.373C481.482 208.956 445.551 226.744 481.872 208.59C482.202 208.426 482.444 208.061 482.455 207.693C482.792 196.204 482.307 208.079 482.748 196.202C482.762 195.811 482.548 195.429 482.198 195.253L459.122 183.664C458.388 183.296 458.386 182.249 459.118 181.878L482.006 170.282C482.339 170.113 482.55 169.773 482.554 169.399L482.646 159.096Z" fill="#988CE3" stroke="#333333" stroke-width="2.85086" stroke-linecap="square" stroke-linejoin="bevel"/>
</g>
<defs>
<clipPath id="clip0_2_11">
<rect width="491.52" height="245.76" fill="white"/>
</clipPath>
</defs>
</svg>
